<svg width="54" height="15" viewBox="0 0 54 15" fill="none" xmlns="http://www.w3.org/2000/svg">
<path d="M22.5436 3.72826H17.0446V15H11.258V3.72826H5.75898V15H0V3.78261C0 3.26087 0.110643 2.77174 0.33193 2.30978C0.553217 1.84783 0.846421 1.45109 1.20601 1.1087C1.57113 0.771739 1.99158 0.5 2.46735 0.298913C2.94311 0.0978261 3.45207 0 3.98316 0H28.3358V15H22.5491V3.72826H22.5436Z" fill="#B5D411"/>
<path d="M53.556 11.2717V15H35.1007C34.553 15 34.033 14.8967 33.5461 14.6848C33.0593 14.4783 32.6333 14.1957 32.2737 13.837C31.9086 13.4783 31.6209 13.0652 31.4107 12.587C31.2005 12.1087 31.0898 11.5978 31.0898 11.0598V3.94022C31.0898 3.40217 31.195 2.8913 31.4107 2.41304C31.6209 1.93478 31.9086 1.5163 32.2737 1.16304C32.6388 0.804348 33.0593 0.521739 33.5461 0.315217C34.033 0.108696 34.553 0 35.1007 0H53.556V3.72826H36.882V11.2663H53.556V11.2717ZM40.1183 9.26087V5.7663H52.3887V9.26087H40.1183Z" fill="#B5D411"/>
</svg>
