<svg width="117" height="33" viewBox="0 0 117 33" fill="none" xmlns="http://www.w3.org/2000/svg">
<path d="M49.2341 8.14234H37.2246V32.7593H24.5868V8.14234H12.5773V32.7593H0V8.26103C0 7.12158 0.24164 6.05334 0.724919 5.04445C1.2082 4.03556 1.84854 3.1691 2.63387 2.42134C3.43128 1.68544 4.34951 1.09198 5.38856 0.652812C6.42761 0.213647 7.53916 0 8.69903 0H61.8839V32.7593H49.2462V8.14234H49.2341Z" fill="white"/>
<path d="M116.959 24.6169V32.7593H76.654C75.4579 32.7593 74.3221 32.5338 73.2589 32.0709C72.1957 31.6198 71.2654 31.0026 70.4801 30.2192C69.6827 29.4359 69.0544 28.5338 68.5953 27.4893C68.1362 26.4448 67.8945 25.3291 67.8945 24.154V8.60524C67.8945 7.43018 68.1241 6.31447 68.5953 5.26997C69.0544 4.22547 69.6827 3.31154 70.4801 2.54003C71.2775 1.75666 72.1957 1.13945 73.2589 0.68842C74.3221 0.237386 75.4579 0 76.654 0H116.959V8.14234H80.5444V24.6051H116.959V24.6169ZM87.6123 20.2253V12.5933H114.41V20.2253H87.6123Z" fill="white"/>
</svg>
